<svg width="140" height="140" viewBox="0 0 140 140" fill="none" xmlns="http://www.w3.org/2000/svg">
<path d="M59.4372 35.4897C61.8999 31.432 65.443 27.8879 69.8341 25.1895C74.1903 27.8677 77.7217 31.3817 80.1845 35.4091C80.3355 35.6508 80.4865 35.9025 80.6259 36.1542C80.8466 36.5369 81.0557 36.9195 81.2532 37.3222C81.7992 38.3794 82.2639 39.4668 82.6704 40.5744C82.7053 40.6851 82.7401 40.7959 82.7866 40.9066C82.8911 41.1986 82.9841 41.4906 83.077 41.7826C83.1815 42.125 83.2745 42.4673 83.3674 42.8096C83.4139 43.0009 83.472 43.1922 83.5068 43.3835C83.5417 43.5547 83.5881 43.7158 83.623 43.8769C83.6462 43.9474 83.6578 44.0179 83.6695 44.0883C83.7275 44.3602 83.774 44.632 83.8205 44.9039C83.8553 45.0952 83.8902 45.2966 83.9134 45.4879C83.9366 45.5785 83.9366 45.659 83.9482 45.7396C83.9599 45.8201 83.9715 45.9007 83.9831 45.9812C84.0063 46.1323 84.018 46.2732 84.0412 46.4242C83.9831 45.9107 83.9134 45.4073 83.8205 44.8938C83.925 45.4476 83.9947 46.0114 84.0644 46.5652C84.0877 46.7767 84.0993 46.9982 84.1225 47.2096C84.1806 47.7835 84.2038 48.3474 84.2038 48.9213C84.2038 49.0522 84.2038 49.1831 84.2038 49.314C84.2038 55.6774 81.8224 61.789 77.6172 66.7831C79.9754 67.9712 81.9154 69.6929 83.2513 71.7771C83.4371 72.0591 83.6114 72.351 83.7624 72.643C83.925 72.9451 84.076 73.2572 84.2038 73.5593C84.3548 73.8815 84.471 74.2137 84.5872 74.546C84.9821 75.7341 85.2029 76.9927 85.2029 78.2714C85.2029 79.3487 85.0518 80.4059 84.7614 81.443C91.9289 82.0874 98.7711 84.7254 104.173 89.0751C105.323 86.2961 106.02 83.4165 106.241 80.4966L106.299 79.822C106.299 79.7011 106.31 79.5803 106.31 79.4595C99.9792 75.6032 92.6026 73.2975 84.9705 72.7336C90.1399 66.9039 93.3461 59.8156 94.0199 52.3245C94.1128 51.3378 94.1593 50.3309 94.1593 49.3341C94.1593 49.0522 94.1592 48.7803 94.1476 48.5085C94.1476 48.3071 94.1476 48.1158 94.1244 47.9245L94.1012 47.4714C94.078 47.0686 94.0431 46.6659 94.0082 46.2632C93.985 46.0618 93.9734 45.8705 93.9502 45.6792C93.9386 45.5684 93.9269 45.4577 93.9153 45.3469C93.8805 45.0247 93.834 44.7126 93.7875 44.3904C93.7062 43.8467 93.6133 43.313 93.4971 42.7794L93.3693 42.1552C93.3113 41.8934 93.2532 41.6316 93.1835 41.3698C90.6278 30.9286 83.1119 21.7158 72.32 16.2586L69.8225 15L67.3365 16.2586C57.2417 21.3634 49.9929 29.7707 47.019 39.3863C50.4808 37.8156 54.14 36.6073 57.9154 35.7918C58.4382 35.6709 58.9377 35.5803 59.4256 35.4796L59.4372 35.4897Z" fill="#231F20"/>
<path d="M76.8847 88.5515L76.8505 88.5615L76.8733 88.6715L76.8847 88.5515Z" fill="black"/>
<path d="M42.233 114.69C36.8893 116.291 31.1275 116.724 25.4469 115.858C24.3201 110.229 25.1101 104.49 27.596 99.3149C27.689 99.1135 27.7819 98.9222 27.8864 98.7209C28.0607 98.3584 28.2582 98.006 28.4556 97.6536C28.4673 97.6335 28.4789 97.6033 28.4905 97.5932C28.6647 97.3012 28.839 96.9991 29.0133 96.7071C29.0365 96.6669 29.0713 96.6165 29.0945 96.5762C29.3036 96.244 29.5244 95.9117 29.7451 95.5895C30.1982 94.9149 30.686 94.2705 31.2088 93.6261C32.1497 92.4682 33.1836 91.3607 34.3337 90.3236C34.3801 90.2733 34.4382 90.233 34.4847 90.1827L34.566 90.1122C34.6473 90.0417 34.7286 89.9712 34.8099 89.9008C35.112 89.639 35.414 89.3772 35.7277 89.1254C41.141 84.7355 48.0297 82.0875 55.2203 81.433C54.9299 80.3959 54.7905 79.3387 54.7905 78.2614C54.7905 77.0934 54.9648 75.9255 55.3133 74.7978C55.4178 74.4554 55.5456 74.1232 55.685 73.7808C55.8476 73.3882 56.0219 73.0055 56.231 72.633C56.382 72.341 56.5562 72.049 56.7305 71.7772C58.0199 69.7735 59.8902 68.082 62.1438 66.8939C57.8922 61.8797 55.4643 55.7278 55.4643 49.314V49.1529C52.3859 50.3209 49.4933 51.8815 46.8564 53.7744C46.5427 53.9959 46.2291 54.2376 45.9154 54.4792C46.9609 61.1749 50.0393 67.4678 54.7208 72.7337C46.4614 73.3982 38.4924 76.0966 31.8593 80.5973C30.4421 81.5639 29.0713 82.611 27.7819 83.7387C26.1091 85.1987 24.5873 86.7694 23.2282 88.4207C15.6657 97.6234 13.0636 109.474 16.4789 120.61L17.2224 123.047L20.0104 123.701C23.7161 124.567 27.4915 124.99 31.2436 124.99C36.9706 124.99 42.6279 124.003 47.9019 122.12C49.8651 121.416 51.7818 120.59 53.6172 119.633C50.0626 118.556 46.6357 117.116 43.4295 115.354C43.0229 115.133 42.6279 114.911 42.2562 114.69H42.233Z" fill="#231F20"/>
<path d="M63.1192 88.6815L63.1306 88.5615L63.0964 88.5515L63.1192 88.6815Z" fill="black"/>
<path d="M118.147 90.253C117.09 93.5052 115.603 96.6164 113.733 99.5464C113.489 99.9189 113.245 100.302 112.978 100.674C114.976 105.487 115.545 110.723 114.523 115.858C108.854 116.724 103.081 116.291 97.737 114.69C97.5395 114.629 97.3304 114.569 97.1329 114.508C96.8658 114.428 96.5986 114.337 96.343 114.247C96.0758 114.156 95.8087 114.065 95.5415 113.965C95.1349 113.814 94.7283 113.653 94.3217 113.491C93.9384 113.33 93.555 113.169 93.1833 112.998C92.7302 112.797 92.2772 112.575 91.8358 112.364C91.4873 112.193 91.162 112.011 90.8251 111.83C90.465 111.639 90.1049 111.437 89.7448 111.216C89.6867 111.186 89.6286 111.145 89.5589 111.105C89.2917 110.944 89.0246 110.783 88.7574 110.602C88.6877 110.561 88.618 110.511 88.5483 110.471C88.223 110.259 87.8977 110.038 87.5841 109.806C87.2356 109.575 86.8987 109.333 86.5734 109.061C86.376 108.92 86.1785 108.769 85.9926 108.618C85.9461 108.578 85.8881 108.548 85.8416 108.497L85.7835 108.447C85.4699 108.195 85.1446 107.923 84.8309 107.652C84.7496 107.581 84.6683 107.511 84.5986 107.44C79.4292 102.839 76.223 96.9285 75.2705 90.7162C75.073 90.7867 74.8871 90.8471 74.6896 90.8974C73.1446 91.3404 71.5764 91.5619 69.9849 91.5619C68.3934 91.5619 66.802 91.3404 65.2802 90.8974C65.0827 90.8471 64.8852 90.7766 64.6994 90.7162C63.7468 96.9084 60.5638 102.788 55.4409 107.38C58.4845 108.548 61.7023 109.343 64.9898 109.746C65.3847 109.796 65.7565 109.837 66.105 109.867C67.5803 108.175 68.8697 106.373 69.9849 104.5C71.0885 106.373 72.3895 108.165 73.8649 109.867L74.4922 110.572C74.5967 110.682 74.6897 110.793 74.7942 110.904C74.9336 111.065 75.0846 111.216 75.2356 111.377C75.4331 111.588 75.6306 111.8 75.8513 112.001C76.2114 112.364 76.5948 112.726 76.9897 113.099C77.2453 113.34 77.5241 113.582 77.8029 113.824C78.012 114.005 78.2211 114.186 78.4302 114.357C78.6393 114.529 78.8484 114.71 79.0691 114.881C79.9287 115.566 80.8 116.22 81.7061 116.844C81.9268 116.995 82.1591 117.146 82.3914 117.297C82.6122 117.448 82.8445 117.589 83.0768 117.74L83.5996 118.063C83.8435 118.204 84.0759 118.355 84.3198 118.496C91.5453 122.734 100.084 125 108.761 125C112.502 125 116.289 124.577 119.994 123.711L122.782 123.057L123.526 120.62C126.709 110.209 124.653 99.1638 118.171 90.243L118.147 90.253Z" fill="#231F20"/>
<path d="M26.4459 82.5908C27.7586 81.4329 29.1874 80.3354 30.6976 79.3084C31.0461 79.0668 31.4062 78.8352 31.7663 78.6036C31.7663 78.4929 31.7663 78.3821 31.7663 78.2714C31.7663 68.6457 36.4478 59.9565 43.9289 53.8549C44.4982 53.3917 45.0674 52.9386 45.6714 52.5158C48.6221 50.3812 51.956 48.6292 55.5572 47.3405C56.1961 47.119 56.8466 46.8974 57.5088 46.7061C61.4236 45.508 65.6288 44.8636 70.0082 44.8636C74.3877 44.8636 78.349 45.4778 82.1708 46.5954C81.8339 43.6151 80.9511 40.7354 79.5455 37.9968C79.348 37.6242 79.1505 37.2517 78.953 36.8892C76.0605 36.4059 73.075 36.1542 70.0199 36.1542C66.9647 36.1542 63.7353 36.4261 60.7266 36.9496C59.9482 37.0805 59.1699 37.2315 58.4032 37.3926C54.1748 38.3089 50.1671 39.7185 46.4614 41.5409C45.7295 41.9034 45.0093 42.2759 44.3007 42.6686C30.8022 50.1295 21.8341 63.3093 21.8341 78.2714C21.8341 81.0302 22.1362 83.7185 22.7286 86.3263C23.8787 85.0174 25.1449 83.7588 26.4924 82.5908H26.4459Z" fill="#FF00C0"/>
<path d="M73.7953 112.424C73.5281 112.142 73.261 111.86 73.017 111.578C72.018 111.659 71.0073 111.689 69.9967 111.689C68.986 111.689 67.9754 111.659 66.9763 111.588C66.2213 111.538 65.4778 111.468 64.7343 111.377C60.9473 110.914 57.3346 109.967 53.989 108.618C53.3733 108.366 52.7576 108.105 52.1652 107.823C44.6724 104.359 38.655 98.7811 35.1468 92.0049C32.8351 94.2099 30.9881 96.6868 29.6057 99.3953C29.4198 99.7578 29.2456 100.12 29.0829 100.493C32.5447 105.366 37.1333 109.575 42.5118 112.847C43.1391 113.24 43.7664 113.602 44.4053 113.955C47.8903 115.868 51.6657 117.398 55.6618 118.496C56.4285 118.707 57.2068 118.898 57.9967 119.069C61.8302 119.935 65.8495 120.388 69.985 120.388C74.1206 120.388 78.1399 119.925 81.9734 119.069C80.0334 117.851 78.1864 116.472 76.4671 114.982C75.503 114.126 74.5968 113.27 73.7953 112.424Z" fill="#FF00C0"/>
<path d="M95.9017 52.4352C95.8669 52.8279 95.8204 53.2307 95.774 53.6233C103.429 59.735 108.215 68.5249 108.215 78.2714C108.215 78.3821 108.215 78.4929 108.215 78.6037C108.215 79.2682 108.18 79.9428 108.134 80.5972C107.878 84.0004 107.007 87.2828 105.66 90.3336C105.404 90.8975 105.137 91.4512 104.858 91.995C101.35 98.7712 95.3325 104.349 87.8398 107.823C90.349 109.746 93.1951 111.297 96.3083 112.444C96.6917 112.585 97.0866 112.726 97.4816 112.847C102.86 109.575 107.449 105.366 110.91 100.493C111.34 99.9089 111.735 99.3249 112.107 98.7309C114.163 95.5291 115.731 92.0755 116.765 88.4306C116.963 87.7258 117.149 87.021 117.3 86.2961C117.892 83.6984 118.194 81.0101 118.194 78.2613C118.194 63.1584 109.052 49.8878 95.3674 42.4572C95.832 44.7126 96.0527 47.0082 96.0527 49.3039C96.0527 50.341 96.0063 51.3982 95.9133 52.4252L95.9017 52.4352Z" fill="#FF00C0"/>
<path d="M82.8447 81.3122C83.1468 80.3456 83.2978 79.3186 83.2978 78.2715C83.2978 77.1438 83.1119 76.0463 82.7634 74.9992C82.4846 74.1433 82.0896 73.3378 81.6017 72.5827C80.3936 70.6998 78.6046 69.1392 76.444 68.0921C74.5272 67.1557 72.3317 66.6321 69.9851 66.6321C67.6386 66.6321 65.2688 67.206 63.3056 68.2129C61.2494 69.26 59.5302 70.7703 58.3685 72.5928C57.8341 73.4184 57.4159 74.3145 57.1255 75.2408C56.8235 76.2074 56.6725 77.2243 56.6725 78.2815C56.6725 79.3388 56.8351 80.3557 57.1255 81.3223C58.2175 84.8262 61.1216 87.6756 64.897 89.0349C64.9435 89.055 64.9784 89.0651 65.0248 89.0852L63.1429 88.4609L63.1197 88.5717L65.8612 89.3571C65.9658 89.3873 66.0587 89.4074 66.1632 89.4376C66.2213 89.4577 66.2794 89.4678 66.3375 89.488C67.4992 89.7799 68.7189 89.941 69.9735 89.941C71.6231 89.941 73.2029 89.6692 74.6666 89.1859L74.5504 89.2262C74.4807 89.2463 74.4111 89.2765 74.3414 89.2967L76.8389 88.5818L76.8157 88.4106L75.4565 88.904C79.0461 87.4843 81.7876 84.7154 82.8331 81.3424L82.8447 81.3122ZM65.838 89.3269C65.6753 89.2866 65.5243 89.2362 65.3617 89.1859L65.141 89.1154C65.4547 89.2262 65.7799 89.3168 66.1168 89.4074C66.0239 89.3873 65.9309 89.3571 65.838 89.3369V89.3269ZM69.9851 81.2014C68.1381 81.2014 66.6279 79.8825 66.6279 78.2614C66.6279 76.6404 68.1381 75.3214 69.9851 75.3214C71.8322 75.3214 73.3423 76.6404 73.3423 78.2614C73.3423 79.8825 71.8322 81.2014 69.9851 81.2014Z" fill="#FF00C0"/>
</svg>
